<?xml version="1.0" encoding="UTF-8"?>
<svg id="Layer_2" data-name="Layer 2" xmlns="http://www.w3.org/2000/svg" viewBox="0 0 64 64">
  <defs>
    <style>
      .cls-1, .cls-2 {
        fill: #ff91c3;
      }

      .cls-2 {
        stroke: #fff;
        stroke-miterlimit: 10;
      }

      .cls-3 {
        fill: #fff;
      }
    </style>
  </defs>
  <g id="Layer_1-2" data-name="Layer 1">
    <g>
      <g>
        <path class="cls-3" d="M32,63C14.91,63,1,49.09,1,32S14.91,1,32,1s31,13.91,31,31-13.91,31-31,31Z"/>
        <path class="cls-1" d="M32,2c16.54,0,30,13.46,30,30s-13.46,30-30,30S2,48.54,2,32,15.46,2,32,2M32,0C14.33,0,0,14.33,0,32s14.33,32,32,32,32-14.33,32-32S49.67,0,32,0h0Z"/>
      </g>
      <path class="cls-2" d="M17.31,17.36c2.95-6.01,8.91-7.43,15.14-7.56,5.49-.02,11.78-.13,15.64,3.34,3.37,3.22,1.8,7.87-2.54,9.21-2.6,1.1-8.09.65-10.32,1.91-1.25,1.4,6.68,1.63,7.65,2.02,2.05.43,4,1.37,5.09,3.19,1.51,2.44.87,5.94-1.39,7.72-2.37,1.96-5.8,1.96-8.69,2.42-3.54.45-4.54,2.66-5.03,5.98-.51,3.32-1.67,6.69-4.78,8.24-3.66,1.97-8.51.52-10.39-3.21-2.71-5.13-2.68-10.91-2.85-16.85.04-5.42.14-11.74,2.43-16.33l.04-.08Z"/>
    </g>
  </g>
</svg>