<?xml version="1.0" encoding="UTF-8"?>
<svg id="Layer_2" data-name="Layer 2" xmlns="http://www.w3.org/2000/svg" viewBox="0 0 472.41 191.3">
  <defs>
    <style>
      .cls-1 {
        fill: #ffc533;
      }

      .cls-2 {
        fill: #72a8d5;
        stroke: #72a8d5;
      }

      .cls-2, .cls-3 {
        stroke-miterlimit: 10;
      }

      .cls-4 {
        fill: #f25555;
      }

      .cls-5 {
        fill: #9994db;
      }

      .cls-6 {
        fill: #8dc25b;
      }

      .cls-7 {
        fill: #ff954f;
      }

      .cls-3 {
        fill: #ff91c3;
        stroke: #ff91c3;
      }
    </style>
  </defs>
  <g id="Layer_1-2" data-name="Layer 1">
    <g>
      <path class="cls-2" d="M5.44,15.62C11.33,3.62,23.25.77,35.69.51c10.96-.04,23.53-.26,31.23,6.67,6.74,6.44,3.6,15.73-5.07,18.41-5.19,2.19-16.16,1.3-20.61,3.81-2.49,2.8,13.34,3.26,15.28,4.03,4.09.85,7.99,2.74,10.16,6.38,3.01,4.88,1.73,11.86-2.77,15.43-4.73,3.92-11.59,3.92-17.35,4.84-7.08.9-9.07,5.3-10.05,11.95-1.01,6.64-3.33,13.37-9.55,16.46-7.3,3.93-17,1.04-20.76-6.41C.79,71.81.84,60.28.5,48.4c.07-10.82.29-23.44,4.86-32.62l.08-.16Z"/>
      <path class="cls-6" d="M75.46,16.78c1.37-4.82,3.63-9.58,7.49-12.51,5.49-4.22,13.87-3.88,19.17.53,5.14,4.22,6.76,11.05,7.47,19.69.25,8.09,2.16,22.46-5.71,27.23-3.02,2.05-8.08,2.74-10.6,5.12-.85,1.9,3.78,2.83,8.63,3.2,3.68.15,7.44.12,11.12.44,6.76.65,12.62,1.61,17.49,5.5,7.43,6.23,3.45,18.27-4.83,21.9-6.57,3.22-15.88,3.52-23.45,3-12.23-.61-22.19-5.87-26.33-17.97-4.64-13.74-4.15-42.07-.51-55.94l.05-.18Z"/>
      <path class="cls-5" d="M158.43,90.56c-12.63.04-19.6-9.91-19.63-21.85.14-15.7,6.48-33.19,13.16-47.75,2.84-5.83,6.55-11.51,11.36-15.08,7.87-5.98,19.37-6.76,28.37-2.87,13.42,5.9,19.25,24.08,24.29,38.37,4,13.66,9.55,30.44.3,42.76-6.99,8.56-23.32,8.92-29.33-.86-2-3.13-3.09-6.75-3.59-10.41-.85-6.44-.41-17.51-.52-26.11,0-5,0-10.15,0-15.01.22-4.94-1.17-11.63-3.36-10.35-3.71,3.07-1.98,15.97-2.37,21.46,0,3.81,0,7.68,0,11.47.21,16.07,1.08,35.77-18.48,36.23h-.19Z"/>
      <path class="cls-4" d="M243.97,84.41c-18.47-14.26-23.98-40.12-21.09-62.35.81-5.84,2.37-11.68,6.46-15.79,7.17-7.37,21.87-6.95,26.74,2.85,4.43,8.66,3.51,15.69,3.7,26.58,0,4.74,0,9.66,0,14.42-.05,4.45-.42,17.07,2.73,17.54,1.42.24,2.87-3.16,2.96-9.13.06-7.43,0-15.12.02-22.58.27-12.25-1.25-24.49,8.33-32.07,3.23-2.22,7.57-3.08,11.8-2.53,11.38,1.37,15.93,11.45,16.91,21.76,1.52,13.15.15,27.6-4.95,39.47-8.8,21.93-31.85,38.09-53.46,21.96l-.16-.12Z"/>
      <path class="cls-1" d="M324.51,84.63c-17.01-11.17-19.78-35.45-15.63-53.84,2.43-10.87,9.4-21.12,19.51-25.88,7.79-3.85,18.19-4.72,27.01-3.47,26.42,3.37,35.33,29.26,32.38,52.75-1.82,18.92-14.14,34.52-33.62,36.27-9.91,1.17-21.4-.29-29.49-5.72l-.16-.1ZM348.74,70.82c2-.98,1.99-7.29,1.89-10.55,0-8.42,0-20.86,0-29.4,0-3.43.05-6.1-.55-7.83-.96-3.2-3.48-3.57-4.61.12-.39,1.22-.5,2.99-.5,4.47-.01,9.2-.01,27.15,0,36.35-.04,2.35.46,8.29,3.71,6.88l.06-.04Z"/>
      <path class="cls-4" d="M451.28,4.1c11.58,3.96,20.92,15.33,16.14,27.68-1.33,3.78-4.76,7.16-5.3,11-.28,4.04,3.48,7.19,5.47,10.53,5.43,8.18,5.75,20.95.94,28.9-5.9,9.88-23.07,11.46-29.43,1.29-5.75-10.07-3.99-17.74-4.36-30.83,0-6.19,0-12.84,0-18.96.26-5.18-.76-12.08-2.69-12.18-1.44-.32-2.93,3.01-3.03,9-.06,7.79,0,15.84-.02,23.67-.38,12.71,1.48,21.26-5.45,30.68-8.32,9.26-22.42,5.46-26.77-5.84-3.42-8.24-3.84-15.76-4.29-25.3-.27-8.59-.16-17.5.79-25.98,1.68-16.82,10.31-26.22,27.44-26.98,9.95-.78,21.4-.19,30.38,3.25l.18.07Z"/>
      <path class="cls-5" d="M5.44,115.62c5.89-12,17.8-14.85,30.24-15.11,10.96-.04,23.53-.26,31.23,6.67,6.74,6.44,3.6,15.73-5.07,18.41-5.19,2.19-16.16,1.3-20.61,3.81-2.49,2.8,13.34,3.26,15.28,4.03,4.09.85,7.99,2.74,10.16,6.38,3.01,4.88,1.73,11.86-2.77,15.43-4.73,3.92-11.59,3.92-17.35,4.84-7.08.9-9.07,5.3-10.05,11.95-1.01,6.64-3.33,13.37-9.55,16.46-7.3,3.93-17,1.04-20.76-6.41-5.41-10.26-5.36-21.79-5.7-33.67.07-10.82.29-23.44,4.86-32.62l.08-.16Z"/>
      <path class="cls-1" d="M80.06,116.52c1.12-4.3,2.85-8.55,5.8-11.54,6.51-6.77,18.82-4.75,22.92,3.65,7.21,13.34,5.73,39.32,4.96,54.28-.94,8.76-2.02,19.15-9.16,25.1-6.42,5-16.79,3.11-20.84-4-3.85-6.22-4.95-14.2-5.59-21.5-.82-14.07-1.36-31.86,1.87-45.8l.05-.19Z"/>
      <path class="cls-6" d="M167.09,106.66c8.3,8.86,8.75,21.34,11.21,33.68.97,4.79,1.44,12.05,4.98,15.23,1.41.87,2.01-.96,2.19-2.16.47-2.02-.22-6.72-.88-10.15-.76-4.43-1.63-9.43-2.33-13.48-1.79-10.8-4.21-20.22,5.13-26.39,4.87-2.82,11.92-2.84,17.11-.53,10.41,4.83,12.48,18.06,13.52,28.4.78,16.64,3.04,45.47-12.96,55.84-8.33,4.88-20.26,5.14-28.68.61-13.78-8.55-9.97-28.36-10.73-42.81-.18-5.05-1.39-8.53-2.65-8.81-4.15.24-2.73,15.78-2.98,20.3-.06,7.75.28,15.02-1.36,21.1-4.28,17.28-25.75,16.83-31.1.3-4.56-13.37-4.04-27.54-3.51-41.89.68-11.33,3.19-25.14,13.36-31.44,8.78-5.09,22-4.91,29.56,2.1l.13.12Z"/>
      <path class="cls-3" d="M240.67,185.85c-14.14-10.16-12.75-30.53-12.72-46.4.38-18.78,5.17-36.32,26.86-38.16,36.87-4.4,57.47,24.2,49.23,58.82-4.24,17.15-18.83,29.32-36.8,30.47-9.43.61-18.68.24-26.42-4.62l-.15-.1ZM267.58,170.82c2-.98,1.99-7.29,1.89-10.55,0-8.42,0-20.86,0-29.4,0-3.43.05-6.1-.55-7.83-.96-3.2-3.48-3.57-4.61.12-.39,1.22-.5,2.99-.5,4.47-.01,9.2-.01,27.15,0,36.35-.04,2.35.46,8.29,3.71,6.88l.06-.04Z"/>
      <path class="cls-7" d="M378.01,105.45c8.44,5.32,7.56,16.55-2.2,19.97-4.94,1.88-10.34,2.02-15.59,2.27-6.82.15-16.39,2.19-7.05,4.04,7.44,1.41,17.08.05,23.44,4.59,6.56,4.33,6.48,14.86-.16,19.07-3.12,2.1-6.57,2.87-10.79,3.35-2.04.41-17.61.45-16.22,3.21,3.71,2.62,17.32,1.59,23.18,3.25,8.92,1.61,14.71,9.91,8.85,17.73-7.05,9.29-28.74,8.12-39.86,7.15-22.5-2.04-27.47-19.64-27.78-39.37-.56-24.69,1.39-48.53,31.8-49.55,10.22-.45,23.81-.78,32.25,4.19l.15.09Z"/>
      <path class="cls-3" d="M451.28,104.1c11.58,3.96,20.92,15.33,16.14,27.68-1.33,3.78-4.76,7.16-5.3,11-.28,4.04,3.48,7.19,5.47,10.53,5.43,8.18,5.75,20.95.94,28.9-5.9,9.88-23.07,11.46-29.43,1.29-5.75-10.07-3.99-17.74-4.36-30.83,0-6.19,0-12.84,0-18.96.26-5.18-.76-12.08-2.69-12.18-1.44-.32-2.93,3.01-3.03,9-.06,7.79,0,15.84-.02,23.67-.38,12.71,1.48,21.26-5.45,30.68-8.32,9.26-22.42,5.46-26.77-5.84-3.42-8.24-3.84-15.76-4.29-25.3-.27-8.59-.16-17.5.79-25.98,1.68-16.82,10.31-26.22,27.44-26.98,9.95-.78,21.4-.19,30.38,3.25l.18.07Z"/>
    </g>
  </g>
</svg>